# xmcd
#
# Track frame offsets:
#	150
#	16163
#	36870
#	53930
#	66405
#
# Disc length: 1087 seconds
#
# Revision: 1
# Processed by: cddbd v1.5.1PL0 Copyright (c) Steve Scherf et al.
# Submitted via: CDex 1.50Beta5
#
DISCID=3e043d05
DTITLE=スカポンタス - スカポンタス
DYEAR=2003
DGENRE=Reggae
TTITLE0=Ska Bomb
TTITLE1=My Little Suede Shoes
TTITLE2=A Ma Pola
TTITLE3=市松ロケット
TTITLE4=Bumpkin
EXTD=
EXTT0=
EXTT1=
EXTT2=
EXTT3=
EXTT4=
PLAYORDER=
